<svg data-v-67af033a="" data-v-2dabcd70="" fill="none" viewBox="0 0 20 20" height="16px" width="16px" xmlns="http://www.w3.org/2000/svg" class="icon icon-inactive icon" style="--59e8faf7: #404040; --4aad4fc2: #262626; --2f37773c: #722AE9;">
<g xmlns="http://www.w3.org/2000/svg" clip-path="url(#clip0_1518_36317)">
<path d="M19.0241 7.64264L15.7916 4.41014C15.6344 4.25834 15.4239 4.17434 15.2054 4.17624C14.9869 4.17814 14.7779 4.26578 14.6234 4.42029C14.4689 4.57479 14.3812 4.7838 14.3793 5.0023C14.3774 5.2208 14.4614 5.4313 14.6132 5.58847L17.8457 8.82097C17.9418 8.91891 18.0257 9.02802 18.0957 9.14597C18.0832 9.14597 18.0732 9.1393 18.0607 9.1393L4.99072 9.16597C4.76971 9.16597 4.55775 9.25377 4.40147 9.41005C4.24519 9.56633 4.15739 9.77829 4.15739 9.9993C4.15739 10.2203 4.24519 10.4323 4.40147 10.5886C4.55775 10.7448 4.76971 10.8326 4.99072 10.8326L18.0557 10.806C18.0791 10.806 18.0982 10.7943 18.1207 10.7926C18.0468 10.9336 17.9531 11.0633 17.8424 11.1776L14.6099 14.4101C14.5303 14.487 14.4668 14.579 14.4231 14.6806C14.3795 14.7823 14.3565 14.8917 14.3555 15.0023C14.3546 15.113 14.3756 15.2227 14.4175 15.3251C14.4594 15.4275 14.5213 15.5206 14.5996 15.5988C14.6778 15.677 14.7708 15.7389 14.8733 15.7808C14.9757 15.8227 15.0854 15.8438 15.1961 15.8428C15.3067 15.8419 15.4161 15.8189 15.5177 15.7752C15.6194 15.7315 15.7114 15.6681 15.7882 15.5885L19.0207 12.356C19.6456 11.7309 19.9967 10.8832 19.9967 9.9993C19.9967 9.11542 19.6456 8.26773 19.0207 7.64264H19.0241Z" fill="currentColor"></path>
<path d="M5.83333 18.3333H4.16667C3.50363 18.3333 2.86774 18.0699 2.3989 17.6011C1.93006 17.1323 1.66667 16.4964 1.66667 15.8333V4.16667C1.66667 3.50363 1.93006 2.86774 2.3989 2.3989C2.86774 1.93006 3.50363 1.66667 4.16667 1.66667H5.83333C6.05435 1.66667 6.26631 1.57887 6.42259 1.42259C6.57887 1.26631 6.66667 1.05435 6.66667 0.833333C6.66667 0.61232 6.57887 0.400358 6.42259 0.244078C6.26631 0.0877974 6.05435 0 5.83333 0H4.16667C3.062 0.00132321 2.00296 0.440735 1.22185 1.22185C0.440735 2.00296 0.00132321 3.062 0 4.16667V15.8333C0.00132321 16.938 0.440735 17.997 1.22185 18.7782C2.00296 19.5593 3.062 19.9987 4.16667 20H5.83333C6.05435 20 6.26631 19.9122 6.42259 19.7559C6.57887 19.5996 6.66667 19.3877 6.66667 19.1667C6.66667 18.9457 6.57887 18.7337 6.42259 18.5774C6.26631 18.4211 6.05435 18.3333 5.83333 18.3333Z" fill="currentColor"></path>
</g>
<defs xmlns="http://www.w3.org/2000/svg">
<clipPath id="clip0_1518_36317">
<rect width="20" height="20" fill="white"></rect>
</clipPath>
</defs>
</svg>